<svg xmlns="http://www.w3.org/2000/svg" width="32" height="32" viewBox="0 0 56 56"><path fill="currentColor" fill-rule="evenodd" d="M29 30v10c3.519-.316 5-2.287 5-4.89c0-2.507-1.152-3.99-5-5.11m-3-5v-9c-3.273.415-5 2.33-5 4.43c0 2.1 1.364 3.647 5 4.57m2.84.737l1.072.277C35.784 27.423 39 29.917 39 34.836c0 5.658-4.466 8.868-10.16 9.284V48h-2.523v-3.88c-5.672-.439-10.16-3.741-10.317-9.284h4.622c.402 2.702 2.1 4.688 5.695 5.08V29.849l-.916-.231c-5.672-1.363-8.731-3.996-8.731-8.684c0-5.173 4.02-8.591 9.647-9.03V8h2.523v3.903c5.582.462 9.624 3.926 9.803 9.169h-4.645c-.29-2.91-2.3-4.596-5.158-4.966z"/></svg>