<svg xmlns="http://www.w3.org/2000/svg" width="32" height="32" viewBox="0 0 24 24"><path fill="currentColor" d="M19 21q-.975 0-1.75-.562T16.175 19H11q-1.65 0-2.825-1.175T7 15q0-1.65 1.175-2.825T11 11h2q.825 0 1.413-.587T15 9q0-.825-.587-1.412T13 7H7.825q-.325.875-1.088 1.438T5 9q-1.25 0-2.125-.875T2 6q0-1.25.875-2.125T5 3q.975 0 1.738.563T7.825 5H13q1.65 0 2.825 1.175T17 9q0 1.65-1.175 2.825T13 13h-2q-.825 0-1.412.588T9 15q0 .825.588 1.413T11 17h5.175q.325-.875 1.088-1.437T19 15q1.25 0 2.125.875T22 18q0 1.25-.875 2.125T19 21M5 7q.425 0 .713-.288T6 6q0-.425-.288-.712T5 5q-.425 0-.712.288T4 6q0 .425.288.713T5 7"/></svg>